# xmcd CD database file
#
# Track frame offsets:
#	150
#	21874
#	39618
#
# Disc length: 752 seconds
#
# Revision: 0
# Processed by: cddbd v1.4PL0 Copyright (c) Steve Scherf et al.
# Submitted via: CDex 1.51
#
DISCID=1d02ee03
DTITLE=Tritone - Tritone
DYEAR=2001
DGENRE=Jazz
TTITLE0=Days Of Wine And Roses
TTITLE1=Straight, No Chaser
TTITLE2=Moonlight In Vermont
EXTD=YEAR: 2001
EXTT0=
EXTT1=
EXTT2=
PLAYORDER=
